<svg width="492" height="515" viewBox="0 0 492 515" fill="none" xmlns="http://www.w3.org/2000/svg">
<g clip-path="url(#clip0_668_12618)">
<path d="M49.2902 368.724C54.8623 368.724 59.3793 364.214 59.3793 358.65C59.3793 353.086 54.8623 348.575 49.2902 348.575C43.7182 348.575 39.2012 353.086 39.2012 358.65C39.2012 364.214 43.7182 368.724 49.2902 368.724Z" fill="#FFF053"/>
<path d="M37.5916 460.773H48.4878V414.949H51.2551L51.8316 460.773H63.016L61.2865 383.056L67.9741 408.156L74.8923 406.199L65.9563 368.549H54.1953L53.9647 364.577H44.6251L44.5098 368.664H33.9019L23.2363 406.141L30.2698 407.868L39.1482 383.172" fill="#FFF053"/>
<path d="M101.009 368.724C106.581 368.724 111.098 364.214 111.098 358.65C111.098 353.086 106.581 348.575 101.009 348.575C95.4369 348.575 90.9199 353.086 90.9199 358.65C90.9199 364.214 95.4369 368.724 101.009 368.724Z" fill="#FFF053"/>
<path d="M89.2459 460.773H100.142V414.949H102.967L103.486 460.773H114.67L112.941 383.056L119.628 408.156L126.547 406.199L117.668 368.549H105.85L105.619 364.577H96.2794L96.1641 368.664H85.5562L74.8906 406.141L81.9241 407.868L90.8025 383.172" fill="#FFF053"/>
<path d="M259.779 372.984C265.351 372.984 269.868 368.473 269.868 362.909C269.868 357.345 265.351 352.835 259.779 352.835C254.206 352.835 249.689 357.345 249.689 362.909C249.689 368.473 254.206 372.984 259.779 372.984Z" fill="#FFF053"/>
<path d="M248.017 465.094H258.914V419.269H261.739L262.257 465.094H273.442L271.77 387.377L278.458 412.476L285.318 410.519L276.44 372.87H264.679L264.391 368.897H255.051L254.936 372.985H244.328L233.662 410.462L240.696 412.189L249.574 387.492" fill="#FFF053"/>
<path d="M311.435 372.984C317.007 372.984 321.524 368.473 321.524 362.909C321.524 357.345 317.007 352.835 311.435 352.835C305.863 352.835 301.346 357.345 301.346 362.909C301.346 368.473 305.863 372.984 311.435 372.984Z" fill="#FFF053"/>
<path d="M299.672 465.094H310.626V419.269H313.393L313.912 465.094H325.096L323.424 387.377L330.112 412.476L337.03 410.519L328.094 372.87H316.333L316.102 368.897H306.763L306.59 372.985H295.982L285.316 410.462L292.408 412.189L301.228 387.492" fill="#FFF053"/>
<path d="M284.111 251.745C289.683 251.745 294.2 247.234 294.2 241.67C294.2 236.106 289.683 231.596 284.111 231.596C278.539 231.596 274.021 236.106 274.021 241.67C274.021 247.234 278.539 251.745 284.111 251.745Z" fill="#FFF053"/>
<path d="M272.347 343.854H283.244V297.973H286.069L286.587 343.854H297.772L296.042 266.137L302.73 291.237L309.648 289.28L300.77 251.573H289.009L288.721 247.601H279.381L279.266 251.745H268.658L257.992 289.165L265.026 290.949L273.904 266.253" fill="#FFF053"/>
<path d="M335.765 251.745C341.337 251.745 345.854 247.234 345.854 241.67C345.854 236.106 341.337 231.596 335.765 231.596C330.193 231.596 325.676 236.106 325.676 241.67C325.676 247.234 330.193 251.745 335.765 251.745Z" fill="#FFF053"/>
<path d="M324.004 343.854H334.9V297.973H337.725L338.244 343.854H349.428L347.756 266.137L354.444 291.237L361.304 289.28L352.426 251.573H340.665L340.377 247.601H331.037L330.922 251.745H320.314L309.648 289.165L316.682 290.949L325.56 266.253" fill="#FFF053"/>
<path d="M309.935 139.545C315.507 139.545 320.024 135.035 320.024 129.471C320.024 123.907 315.507 119.396 309.935 119.396C304.363 119.396 299.846 123.907 299.846 129.471C299.846 135.035 304.363 139.545 309.935 139.545Z" fill="#FFF053"/>
<path d="M298.174 231.655H309.07V185.773H311.895L312.414 231.655H323.598L321.869 153.881L328.556 178.98L335.474 177.081L326.596 139.374H314.835L314.547 135.401H305.207L305.092 139.489H294.484L283.818 176.965L290.852 178.693L299.73 153.996" fill="#FFF053"/>
<path d="M361.591 139.545C367.163 139.545 371.68 135.035 371.68 129.471C371.68 123.907 367.163 119.396 361.591 119.396C356.019 119.396 351.502 123.907 351.502 129.471C351.502 135.035 356.019 139.545 361.591 139.545Z" fill="#FFF053"/>
<path d="M349.834 231.655H360.788V185.773H363.555L364.074 231.655H375.258L373.586 153.881L380.274 178.98L387.134 177.081L378.256 139.374H366.495L366.207 135.401H356.925L356.752 139.489H346.144L335.479 176.965L342.512 178.693L351.39 153.996" fill="#FFF053"/>
<path d="M335.765 20.1488C341.337 20.1488 345.854 15.6383 345.854 10.0744C345.854 4.51046 341.337 0 335.765 0C330.193 0 325.676 4.51046 325.676 10.0744C325.676 15.6383 330.193 20.1488 335.765 20.1488Z" fill="#FFF053"/>
<path d="M324.004 112.259H334.9V66.3769H337.725L338.244 112.259H349.428L347.756 34.4842L354.444 59.5839L361.304 57.6841L352.426 19.9771H340.665L340.377 16.0049H331.037L330.922 20.0922H320.314L309.648 57.569L316.682 59.296L325.56 34.5994" fill="#FFF053"/>
<path d="M387.421 20.1488C392.993 20.1488 397.51 15.6383 397.51 10.0744C397.51 4.51046 392.993 0 387.421 0C381.849 0 377.332 4.51046 377.332 10.0744C377.332 15.6383 381.849 20.1488 387.421 20.1488Z" fill="#FFF053"/>
<path d="M375.658 112.259H386.612V66.3769H389.379L389.898 112.259H401.083L399.411 34.4842L406.098 59.5839L413.016 57.6841L404.08 19.9771H392.32L392.089 16.0049H382.749L382.576 20.0922H371.968L361.303 57.569L368.394 59.296L377.215 34.5994" fill="#FFF053"/>
<path d="M1.78735 487.313H12.7412V490.652H5.41941V493.991H12.2223V497.33H5.41941V503.663H1.78735V487.371V487.313Z" fill="#FFF053"/>
<path d="M15.9121 501.819C15.4509 501.359 15.1049 500.783 14.8743 500.092C14.6437 499.459 14.5284 498.711 14.5284 497.962C14.5284 497.099 14.7014 496.293 14.9896 495.545C15.3355 494.854 15.7391 494.22 16.3156 493.702C16.8921 493.184 17.5263 492.781 18.2758 492.493C19.0253 492.206 19.8324 492.09 20.6972 492.09C21.4466 492.09 22.1385 492.206 22.7726 492.378C23.4068 492.551 23.9833 492.839 24.5022 493.184L26.0588 491.63L27.1542 492.666L25.6552 494.163C26.0588 494.681 26.4047 495.199 26.6353 495.832C26.8659 496.466 26.9812 497.156 26.9812 497.905C26.9812 498.768 26.8082 499.574 26.52 500.323C26.1741 501.013 25.7705 501.647 25.194 502.165C24.6175 502.683 23.9833 503.086 23.2338 503.374C22.4844 503.662 21.6772 503.777 20.8125 503.777C19.4288 503.777 18.2181 503.431 17.1228 502.741L15.4509 504.41L14.3555 503.374L15.9697 501.762L15.9121 501.819ZM22.1961 495.545C21.7925 495.314 21.2737 495.199 20.6972 495.199C19.8324 495.199 19.1406 495.487 18.6793 496.005C18.2181 496.523 17.9299 497.214 17.9299 498.077C17.9299 498.653 18.0452 499.114 18.2758 499.517L22.1961 495.602V495.545ZM19.3712 500.495C19.7747 500.726 20.2359 500.841 20.7548 500.841C21.6196 500.841 22.3114 500.553 22.7726 500.035C23.2338 499.517 23.5221 498.826 23.5221 497.962C23.5221 497.502 23.4068 497.041 23.2338 496.638L19.3712 500.438V500.495Z" fill="#FFF053"/>
<path d="M28.9444 492.38H32.4035V494.164C32.7494 493.473 33.2106 492.955 33.7295 492.61C34.2483 492.264 34.8825 492.092 35.632 492.092C35.8626 492.092 36.0355 492.092 36.2085 492.092C36.3814 492.092 36.6121 492.092 36.785 492.207V495.373C36.785 495.373 36.3238 495.258 36.0355 495.2C35.8049 495.2 35.5743 495.2 35.2861 495.2C34.5942 495.2 34.0754 495.316 33.7295 495.488C33.3836 495.661 33.0376 495.949 32.8647 496.237C32.6341 496.582 32.5188 496.985 32.4611 497.446C32.4035 497.906 32.3458 498.424 32.3458 498.942V503.605H28.8867V492.437L28.9444 492.38Z" fill="#FFF053"/>
<path d="M46.351 495.143H44.0449V492.379H46.351V490.422C46.351 489.789 46.351 489.213 46.5239 488.695C46.6969 488.177 46.8122 487.659 47.1581 487.256C47.4464 486.853 47.9076 486.507 48.4841 486.277C49.0606 486.047 49.8101 485.932 50.7325 485.932C51.0784 485.932 51.4243 485.932 51.7703 485.932C52.1162 485.932 52.4621 485.989 52.7503 486.104L52.5774 489.04C52.5774 489.04 52.1738 488.925 52.0009 488.868C51.8279 488.868 51.655 488.868 51.4243 488.868C50.8478 488.868 50.4443 488.983 50.156 489.213C49.8677 489.443 49.7524 489.961 49.7524 490.652V492.437H52.2891V495.2H49.7524V503.605H46.2933V495.2L46.351 495.143Z" fill="#FFF053"/>
<path d="M64.3395 501.648C63.763 502.339 63.0712 502.915 62.2641 503.26C61.3993 503.663 60.5345 503.836 59.6121 503.836C58.6897 503.836 57.9402 503.721 57.1907 503.433C56.4412 503.145 55.7494 502.742 55.2306 502.224C54.7117 501.706 54.2505 501.072 53.9046 500.382C53.5587 499.633 53.4434 498.827 53.4434 497.964C53.4434 497.1 53.6163 496.294 53.9046 495.546C54.2505 494.855 54.654 494.222 55.2306 493.704C55.8071 493.186 56.4412 492.783 57.1907 492.495C57.9402 492.207 58.7473 492.092 59.6121 492.092C60.4192 492.092 61.111 492.207 61.8029 492.495C62.4947 492.783 63.0135 493.186 63.4748 493.704C63.936 494.222 64.2819 494.855 64.5125 495.546C64.7431 496.294 64.8584 497.1 64.8584 497.964V499.058H56.8448C56.9601 499.691 57.306 500.266 57.7672 500.612C58.2285 501.015 58.805 501.188 59.4968 501.188C60.0733 501.188 60.5345 501.072 60.9381 500.785C61.3416 500.497 61.6876 500.209 61.9758 499.806L64.3972 501.59L64.3395 501.648ZM61.3993 496.755C61.3993 496.179 61.2263 495.661 60.8228 495.258C60.4192 494.855 59.9004 494.625 59.2662 494.625C58.8626 494.625 58.5744 494.682 58.2285 494.797C57.9402 494.913 57.7096 495.085 57.479 495.258C57.2484 495.431 57.1331 495.661 57.0178 495.949C56.9025 496.179 56.8448 496.467 56.8448 496.755H61.3993Z" fill="#FFF053"/>
<path d="M73.2748 495.719C72.7559 495.085 72.1217 494.798 71.2569 494.798C70.9687 494.798 70.6804 494.855 70.3922 495.028C70.1039 495.143 69.9886 495.431 69.9886 495.719C69.9886 496.006 70.1039 496.179 70.3922 496.352C70.6804 496.467 71.0263 496.582 71.4876 496.697C71.9488 496.812 72.41 496.928 72.8712 497.043C73.3324 497.158 73.8513 497.331 74.2548 497.561C74.7161 497.791 75.062 498.136 75.3502 498.539C75.6385 498.942 75.7538 499.518 75.7538 500.209C75.7538 500.9 75.5808 501.533 75.2926 501.994C75.0043 502.454 74.6008 502.857 74.0819 503.145C73.563 503.433 73.0442 503.605 72.41 503.721C71.7758 503.836 71.1993 503.893 70.5651 503.893C69.758 503.893 69.0085 503.778 68.2014 503.548C67.3943 503.318 66.7025 502.915 66.1836 502.339L68.2591 500.036C68.605 500.439 68.9509 500.727 69.3544 500.957C69.758 501.188 70.2192 501.245 70.7381 501.245C71.1416 501.245 71.4876 501.245 71.8335 501.072C72.1794 500.957 72.2947 500.727 72.2947 500.439C72.2947 500.151 72.1217 499.921 71.8911 499.806C71.6029 499.633 71.2569 499.518 70.7957 499.461C70.3345 499.345 69.8733 499.23 69.4121 499.115C68.8932 499 68.432 498.827 68.0285 498.597C67.6249 498.367 67.2213 498.021 66.9331 497.618C66.6448 497.215 66.5295 496.64 66.5295 495.949C66.5295 495.316 66.6448 494.74 66.9331 494.222C67.2213 493.761 67.5672 493.358 67.9708 493.071C68.432 492.783 68.8932 492.552 69.4697 492.38C70.0463 492.207 70.6228 492.149 71.1993 492.149C71.9488 492.149 72.6982 492.265 73.4477 492.495C74.1972 492.725 74.8314 493.071 75.3502 493.646L73.2171 495.719H73.2748Z" fill="#FFF053"/>
<path d="M85.2689 495.143H82.2133V498.885C82.2133 499.173 82.2133 499.461 82.2133 499.749C82.2133 499.979 82.3286 500.209 82.4439 500.382C82.5592 500.555 82.7322 500.727 82.9628 500.785C83.1934 500.9 83.4817 500.958 83.8276 500.958C84.0005 500.958 84.2311 500.958 84.577 500.958C84.8653 500.958 85.0959 500.843 85.2689 500.67V503.548C84.8653 503.663 84.4617 503.779 84.0582 503.836C83.6546 503.836 83.251 503.894 82.8475 503.894C82.271 503.894 81.6944 503.836 81.2332 503.721C80.772 503.606 80.3108 503.376 79.9649 503.145C79.619 502.857 79.3307 502.512 79.1001 502.109C78.8695 501.706 78.8119 501.13 78.8119 500.555V495.258H76.6211V492.495H78.8119V489.156H82.271V492.495H85.3265V495.258L85.2689 495.143Z" fill="#FFF053"/>
<path d="M86.7676 488.867C86.7676 488.292 86.9405 487.831 87.3441 487.428C87.7477 487.025 88.2089 486.853 88.7854 486.853C89.3619 486.853 89.8231 487.025 90.2267 487.428C90.6302 487.831 90.8032 488.292 90.8032 488.867C90.8032 489.443 90.6302 489.904 90.2267 490.307C89.8231 490.71 89.3619 490.882 88.7854 490.882C88.2089 490.882 87.7477 490.71 87.3441 490.307C86.9405 489.904 86.7676 489.443 86.7676 488.867ZM87.0558 492.379H90.5149V503.547H87.0558V492.379Z" fill="#FFF053"/>
<path d="M91.8409 492.38H95.5882L98.4132 499.979L101.065 492.38H104.524L100.085 503.548H96.3953L91.7832 492.38H91.8409Z" fill="#FFF053"/>
<path d="M112.881 502.166C112.477 502.742 111.958 503.203 111.324 503.433C110.69 503.721 109.998 503.836 109.306 503.836C108.787 503.836 108.269 503.778 107.807 503.606C107.346 503.49 106.885 503.26 106.539 502.972C106.193 502.684 105.847 502.339 105.674 501.878C105.501 501.418 105.328 500.957 105.328 500.382C105.328 499.748 105.444 499.173 105.674 498.77C105.905 498.309 106.251 497.964 106.654 497.676C107.058 497.388 107.519 497.158 108.038 496.985C108.557 496.812 109.076 496.697 109.652 496.64C110.229 496.582 110.748 496.525 111.324 496.525C111.901 496.525 112.42 496.525 112.881 496.525C112.881 495.891 112.65 495.431 112.247 495.085C111.785 494.74 111.267 494.567 110.69 494.567C110.113 494.567 109.595 494.682 109.133 494.913C108.672 495.143 108.269 495.488 107.865 495.891L106.02 493.992C106.654 493.416 107.404 492.955 108.269 492.668C109.133 492.38 109.998 492.207 110.921 492.207C111.958 492.207 112.765 492.322 113.4 492.61C114.034 492.84 114.553 493.243 114.956 493.704C115.36 494.222 115.648 494.798 115.763 495.488C115.936 496.179 115.994 497.043 115.994 497.964V503.663H112.823V502.281L112.881 502.166ZM112.016 498.712C112.016 498.712 111.439 498.712 111.036 498.712C110.632 498.712 110.286 498.827 109.883 498.885C109.479 498.943 109.191 499.173 108.96 499.345C108.73 499.576 108.557 499.864 108.557 500.267C108.557 500.67 108.73 500.957 109.076 501.188C109.422 501.418 109.768 501.475 110.171 501.475C110.517 501.475 110.863 501.475 111.151 501.36C111.439 501.245 111.728 501.13 112.016 500.957C112.304 500.785 112.477 500.554 112.592 500.324C112.708 500.094 112.823 499.748 112.823 499.403V498.655H111.958L112.016 498.712Z" fill="#FFF053"/>
<path d="M118.244 486.163H121.703V503.549H118.244V486.163Z" fill="#FFF053"/>
<path d="M134.791 501.648C134.214 502.339 133.522 502.915 132.715 503.26C131.85 503.663 130.986 503.836 130.063 503.836C129.141 503.836 128.391 503.721 127.642 503.433C126.892 503.145 126.201 502.742 125.682 502.224C125.163 501.706 124.702 501.072 124.356 500.382C124.01 499.633 123.895 498.827 123.895 497.964C123.895 497.1 124.067 496.294 124.356 495.546C124.702 494.855 125.105 494.222 125.682 493.704C126.258 493.186 126.892 492.783 127.642 492.495C128.391 492.207 129.198 492.092 130.063 492.092C130.87 492.092 131.562 492.207 132.254 492.495C132.946 492.783 133.465 493.186 133.926 493.704C134.387 494.222 134.733 494.855 134.964 495.546C135.194 496.294 135.31 497.1 135.31 497.964V499.058H127.296C127.411 499.691 127.757 500.266 128.218 500.612C128.68 501.015 129.256 501.188 129.948 501.188C130.524 501.188 130.986 501.072 131.389 500.785C131.793 500.497 132.139 500.209 132.427 499.806L134.848 501.59L134.791 501.648ZM131.908 496.755C131.908 496.179 131.735 495.661 131.332 495.258C130.928 494.855 130.409 494.625 129.775 494.625C129.371 494.625 129.083 494.682 128.737 494.797C128.449 494.913 128.218 495.085 127.988 495.258C127.757 495.431 127.642 495.661 127.527 495.949C127.411 496.179 127.354 496.467 127.354 496.755H131.908Z" fill="#FFF053"/>
<path d="M137.443 492.38H140.787V493.876C140.787 493.876 141.075 493.473 141.248 493.243C141.421 493.013 141.71 492.84 141.94 492.667C142.171 492.495 142.517 492.38 142.863 492.264C143.209 492.149 143.612 492.092 144.016 492.092C144.88 492.092 145.572 492.207 146.149 492.495C146.725 492.783 147.129 493.128 147.417 493.589C147.705 494.049 147.936 494.625 148.051 495.258C148.167 495.891 148.224 496.582 148.224 497.33V503.49H144.765V498.021C144.765 497.676 144.765 497.388 144.765 497.043C144.765 496.697 144.65 496.352 144.535 496.064C144.419 495.776 144.246 495.546 144.016 495.373C143.785 495.2 143.439 495.085 142.978 495.085C142.517 495.085 142.171 495.143 141.883 495.316C141.594 495.488 141.421 495.719 141.248 495.949C141.075 496.237 141.018 496.525 140.96 496.87C140.902 497.215 140.902 497.561 140.902 497.906V503.49H137.443V492.322V492.38Z" fill="#FFF053"/>
<path d="M289.702 496.869C289.702 497.848 289.529 498.712 289.24 499.517C288.952 500.323 288.491 501.014 287.914 501.648C287.338 502.281 286.646 502.741 285.781 503.029C284.917 503.317 283.936 503.547 282.783 503.547C281.63 503.547 280.65 503.375 279.786 503.029C278.921 502.684 278.229 502.223 277.652 501.648C277.076 501.072 276.672 500.323 276.326 499.517C276.038 498.712 275.865 497.79 275.865 496.869V486.853H279.44V496.754C279.44 497.272 279.497 497.733 279.67 498.136C279.843 498.539 280.074 498.942 280.362 499.23C280.65 499.518 280.996 499.805 281.4 499.978C281.803 500.151 282.265 500.266 282.726 500.266C283.187 500.266 283.648 500.151 284.052 499.978C284.455 499.805 284.801 499.575 285.09 499.23C285.378 498.942 285.608 498.539 285.781 498.136C285.954 497.733 286.012 497.215 286.012 496.754V486.853H289.586V496.869H289.702Z" fill="#FFF053"/>
<path d="M292.582 491.976H295.926V493.473C295.926 493.473 296.214 493.07 296.387 492.84C296.56 492.61 296.848 492.437 297.079 492.264C297.309 492.091 297.655 491.976 298.001 491.861C298.347 491.746 298.751 491.688 299.154 491.688C300.019 491.688 300.711 491.804 301.287 492.091C301.864 492.379 302.268 492.725 302.556 493.185C302.844 493.646 303.075 494.221 303.19 494.855C303.305 495.488 303.363 496.179 303.363 496.927V503.087H299.904V497.618C299.904 497.273 299.904 496.985 299.904 496.639C299.904 496.294 299.788 495.948 299.673 495.661C299.558 495.373 299.385 495.143 299.154 494.97C298.924 494.797 298.578 494.682 298.117 494.682C297.655 494.682 297.309 494.74 297.021 494.912C296.733 495.085 296.56 495.315 296.387 495.546C296.214 495.833 296.156 496.121 296.099 496.467C296.041 496.812 296.041 497.157 296.041 497.503V503.087H292.582V491.919V491.976Z" fill="#FFF053"/>
<path d="M317.604 503.202H314.433V501.705C314.433 501.705 314.087 502.108 313.914 502.338C313.684 502.569 313.453 502.741 313.107 502.914C312.819 503.087 312.473 503.202 312.127 503.317C311.781 503.432 311.378 503.49 311.032 503.49C310.224 503.49 309.475 503.375 308.783 503.087C308.091 502.799 307.515 502.396 307.054 501.878C306.592 501.36 306.189 500.727 305.958 500.036C305.728 499.345 305.555 498.539 305.555 497.733C305.555 496.927 305.67 496.179 305.901 495.488C306.131 494.797 306.477 494.164 306.938 493.588C307.4 493.012 307.918 492.609 308.553 492.264C309.187 491.919 309.879 491.746 310.686 491.746C311.378 491.746 312.069 491.861 312.704 492.091C313.338 492.322 313.857 492.667 314.26 493.243V485.816H317.719V503.202H317.604ZM314.433 497.56C314.433 496.697 314.202 496.006 313.684 495.488C313.222 494.97 312.531 494.682 311.666 494.682C310.801 494.682 310.109 494.97 309.648 495.488C309.187 496.006 308.898 496.697 308.898 497.56C308.898 498.424 309.129 499.115 309.648 499.633C310.109 500.151 310.801 500.439 311.666 500.439C312.531 500.439 313.222 500.151 313.684 499.633C314.145 499.115 314.433 498.424 314.433 497.56Z" fill="#FFF053"/>
<path d="M330.98 501.245C330.404 501.936 329.712 502.511 328.905 502.857C328.04 503.26 327.175 503.432 326.253 503.432C325.33 503.432 324.581 503.317 323.831 503.029C323.082 502.741 322.39 502.339 321.871 501.82C321.352 501.302 320.891 500.669 320.545 499.978C320.199 499.23 320.084 498.424 320.084 497.56C320.084 496.697 320.257 495.891 320.545 495.143C320.891 494.452 321.295 493.818 321.871 493.3C322.448 492.782 323.082 492.379 323.831 492.091C324.581 491.804 325.388 491.688 326.253 491.688C327.06 491.688 327.752 491.804 328.443 492.091C329.135 492.379 329.654 492.782 330.115 493.3C330.577 493.818 330.923 494.452 331.153 495.143C331.384 495.891 331.499 496.697 331.499 497.56V498.654H323.485C323.601 499.287 323.947 499.863 324.408 500.209C324.869 500.611 325.446 500.784 326.137 500.784C326.714 500.784 327.175 500.669 327.579 500.381C327.982 500.093 328.328 499.806 328.616 499.403L331.038 501.187L330.98 501.245ZM328.04 496.294C328.04 495.718 327.867 495.2 327.463 494.797C327.06 494.394 326.541 494.164 325.907 494.164C325.503 494.164 325.215 494.221 324.869 494.337C324.581 494.452 324.35 494.624 324.12 494.797C323.889 494.97 323.774 495.2 323.658 495.488C323.543 495.718 323.485 496.006 323.485 496.294H328.04Z" fill="#FFF053"/>
<path d="M333.575 491.976H337.034V493.761C337.38 493.07 337.841 492.552 338.36 492.207C338.879 491.861 339.513 491.688 340.263 491.688C340.493 491.688 340.666 491.688 340.839 491.688C341.012 491.688 341.243 491.688 341.416 491.804V494.97C341.416 494.97 340.955 494.855 340.666 494.797C340.436 494.797 340.205 494.797 339.917 494.797C339.225 494.797 338.706 494.912 338.36 495.085C338.014 495.258 337.669 495.545 337.496 495.833C337.265 496.179 337.15 496.582 337.092 497.042C337.034 497.503 336.977 498.021 336.977 498.539V503.202H333.518V492.034L333.575 491.976Z" fill="#FFF053"/>
<path d="M350.982 494.739H348.676V491.976H350.982V490.019C350.982 489.385 350.982 488.81 351.155 488.292C351.328 487.773 351.443 487.255 351.789 486.852C352.077 486.449 352.538 486.104 353.115 485.874C353.691 485.643 354.441 485.528 355.363 485.528C355.709 485.528 356.055 485.528 356.401 485.528C356.747 485.528 357.093 485.586 357.381 485.701L357.208 488.637C357.208 488.637 356.805 488.522 356.632 488.464C356.459 488.464 356.286 488.464 356.055 488.464C355.479 488.464 355.075 488.579 354.787 488.81C354.499 489.04 354.383 489.558 354.383 490.249V492.034H356.92V494.797H354.383V503.202H350.924V494.797L350.982 494.739Z" fill="#FFF053"/>
<path d="M368.97 501.245C368.394 501.936 367.702 502.511 366.895 502.857C366.03 503.26 365.165 503.432 364.243 503.432C363.321 503.432 362.571 503.317 361.822 503.029C361.072 502.741 360.38 502.339 359.861 501.82C359.343 501.302 358.881 500.669 358.535 499.978C358.19 499.23 358.074 498.424 358.074 497.56C358.074 496.697 358.247 495.891 358.535 495.143C358.881 494.452 359.285 493.818 359.861 493.3C360.438 492.782 361.072 492.379 361.822 492.091C362.571 491.804 363.378 491.688 364.243 491.688C365.05 491.688 365.742 491.804 366.434 492.091C367.126 492.379 367.644 492.782 368.106 493.3C368.567 493.818 368.913 494.452 369.143 495.143C369.374 495.891 369.489 496.697 369.489 497.56V498.654H361.476C361.591 499.287 361.937 499.863 362.398 500.209C362.859 500.611 363.436 500.784 364.128 500.784C364.704 500.784 365.165 500.669 365.569 500.381C365.973 500.093 366.318 499.806 366.607 499.403L369.028 501.187L368.97 501.245ZM366.03 496.294C366.03 495.718 365.857 495.2 365.454 494.797C365.05 494.394 364.531 494.164 363.897 494.164C363.493 494.164 363.205 494.221 362.859 494.337C362.571 494.452 362.34 494.624 362.11 494.797C361.879 494.97 361.764 495.2 361.649 495.488C361.533 495.718 361.476 496.006 361.476 496.294H366.03Z" fill="#FFF053"/>
<path d="M377.908 495.258C377.389 494.624 376.755 494.337 375.89 494.337C375.601 494.337 375.313 494.394 375.025 494.567C374.737 494.682 374.621 494.97 374.621 495.258C374.621 495.546 374.737 495.718 375.025 495.891C375.313 496.006 375.659 496.121 376.12 496.236C376.582 496.351 377.043 496.467 377.504 496.582C377.965 496.697 378.484 496.87 378.888 497.1C379.349 497.33 379.695 497.676 379.983 498.078C380.271 498.481 380.387 499.057 380.387 499.748C380.387 500.439 380.214 501.072 379.925 501.533C379.637 501.993 379.234 502.396 378.715 502.684C378.196 502.972 377.677 503.144 377.043 503.26C376.409 503.375 375.832 503.432 375.198 503.432C374.391 503.432 373.641 503.317 372.834 503.087C372.027 502.857 371.335 502.454 370.816 501.878L372.892 499.575C373.238 499.978 373.584 500.266 373.987 500.496C374.391 500.727 374.852 500.784 375.371 500.784C375.774 500.784 376.12 500.784 376.466 500.611C376.812 500.496 376.927 500.266 376.927 499.978C376.927 499.69 376.755 499.46 376.524 499.345C376.236 499.172 375.89 499.057 375.429 499C374.967 498.884 374.506 498.769 374.045 498.654C373.526 498.539 373.065 498.366 372.661 498.136C372.258 497.906 371.854 497.56 371.566 497.157C371.278 496.754 371.162 496.179 371.162 495.488C371.162 494.855 371.278 494.279 371.566 493.761C371.854 493.3 372.2 492.897 372.604 492.61C373.065 492.322 373.526 492.091 374.103 491.919C374.679 491.746 375.256 491.688 375.832 491.688C376.582 491.688 377.331 491.804 378.081 492.034C378.83 492.264 379.464 492.61 379.983 493.185L377.85 495.258H377.908Z" fill="#FFF053"/>
<path d="M389.9 494.739H386.844V498.481C386.844 498.769 386.844 499.057 386.844 499.344C386.844 499.575 386.959 499.805 387.075 499.978C387.19 500.15 387.363 500.323 387.594 500.381C387.824 500.496 388.113 500.553 388.458 500.553C388.631 500.553 388.862 500.553 389.208 500.553C389.496 500.553 389.727 500.438 389.9 500.266V503.144C389.496 503.259 389.093 503.374 388.689 503.432C388.285 503.432 387.882 503.489 387.478 503.489C386.902 503.489 386.325 503.432 385.864 503.317C385.403 503.202 384.942 502.971 384.596 502.741C384.25 502.453 383.962 502.108 383.731 501.705C383.5 501.302 383.443 500.726 383.443 500.15V494.854H381.252V492.091H383.443V488.752H386.902V492.091H389.957V494.854L389.9 494.739Z" fill="#FFF053"/>
<path d="M391.4 488.466C391.4 487.89 391.573 487.43 391.977 487.027C392.38 486.624 392.842 486.451 393.418 486.451C393.995 486.451 394.456 486.624 394.859 487.027C395.263 487.43 395.436 487.89 395.436 488.466C395.436 489.042 395.263 489.502 394.859 489.905C394.456 490.308 393.995 490.481 393.418 490.481C392.842 490.481 392.38 490.308 391.977 489.905C391.573 489.502 391.4 489.042 391.4 488.466ZM391.689 491.978H395.148V503.146H391.689V491.978Z" fill="#FFF053"/>
<path d="M396.474 491.977H400.221L403.046 499.576L405.698 491.977H409.157L404.718 503.145H401.028L396.416 491.977H396.474Z" fill="#FFF053"/>
<path d="M417.455 501.763C417.051 502.339 416.532 502.799 415.898 503.029C415.264 503.317 414.572 503.432 413.88 503.432C413.361 503.432 412.843 503.375 412.381 503.202C411.92 503.087 411.459 502.857 411.113 502.569C410.767 502.281 410.421 501.936 410.248 501.475C410.075 501.015 409.902 500.554 409.902 499.978C409.902 499.345 410.018 498.769 410.248 498.366C410.479 497.906 410.825 497.56 411.228 497.273C411.632 496.985 412.093 496.755 412.612 496.582C413.131 496.409 413.65 496.294 414.226 496.236C414.803 496.179 415.322 496.121 415.898 496.121C416.475 496.121 416.994 496.121 417.455 496.121C417.455 495.488 417.224 495.028 416.821 494.682C416.359 494.337 415.84 494.164 415.264 494.164C414.687 494.164 414.169 494.279 413.707 494.509C413.246 494.74 412.843 495.085 412.439 495.488L410.594 493.588C411.228 493.013 411.978 492.552 412.843 492.264C413.707 491.976 414.572 491.804 415.495 491.804C416.532 491.804 417.339 491.919 417.974 492.207C418.608 492.437 419.127 492.84 419.53 493.3C419.934 493.819 420.222 494.394 420.337 495.085C420.51 495.776 420.568 496.639 420.568 497.561V503.26H417.397V501.878L417.455 501.763ZM416.648 498.251C416.648 498.251 416.071 498.251 415.668 498.251C415.264 498.251 414.918 498.366 414.515 498.424C414.111 498.482 413.823 498.712 413.592 498.885C413.361 499.115 413.188 499.403 413.188 499.806C413.188 500.209 413.361 500.496 413.707 500.727C414.053 500.957 414.399 501.015 414.803 501.015C415.149 501.015 415.495 501.015 415.783 500.899C416.071 500.784 416.359 500.669 416.648 500.496C416.936 500.324 417.109 500.094 417.224 499.863C417.339 499.633 417.455 499.288 417.455 498.942V498.194H416.59L416.648 498.251Z" fill="#FFF053"/>
<path d="M422.875 485.759H426.334V503.144H422.875V485.759Z" fill="#FFF053"/>
<path d="M439.422 501.245C438.845 501.936 438.153 502.511 437.346 502.857C436.481 503.26 435.617 503.432 434.694 503.432C433.772 503.432 433.022 503.317 432.273 503.029C431.523 502.741 430.831 502.339 430.313 501.82C429.794 501.302 429.333 500.669 428.987 499.978C428.641 499.23 428.525 498.424 428.525 497.56C428.525 496.697 428.698 495.891 428.987 495.143C429.333 494.452 429.736 493.818 430.313 493.3C430.889 492.782 431.523 492.379 432.273 492.091C433.022 491.804 433.829 491.688 434.694 491.688C435.501 491.688 436.193 491.804 436.885 492.091C437.577 492.379 438.096 492.782 438.557 493.3C439.018 493.818 439.364 494.452 439.595 495.143C439.825 495.891 439.94 496.697 439.94 497.56V498.654H431.927C432.042 499.287 432.388 499.863 432.849 500.209C433.31 500.611 433.887 500.784 434.579 500.784C435.155 500.784 435.617 500.669 436.02 500.381C436.424 500.093 436.77 499.806 437.058 499.403L439.479 501.187L439.422 501.245ZM436.481 496.294C436.481 495.718 436.308 495.2 435.905 494.797C435.501 494.394 434.982 494.164 434.348 494.164C433.945 494.164 433.656 494.221 433.31 494.337C433.022 494.452 432.792 494.624 432.561 494.797C432.33 494.97 432.215 495.2 432.1 495.488C431.984 495.718 431.927 496.006 431.927 496.294H436.481Z" fill="#FFF053"/>
<path d="M442.074 491.976H445.418V493.473C445.418 493.473 445.706 493.07 445.879 492.84C446.052 492.61 446.34 492.437 446.571 492.264C446.802 492.091 447.148 491.976 447.493 491.861C447.839 491.746 448.243 491.688 448.647 491.688C449.511 491.688 450.203 491.804 450.78 492.091C451.356 492.379 451.76 492.725 452.048 493.185C452.336 493.646 452.567 494.221 452.682 494.855C452.797 495.488 452.855 496.179 452.855 496.927V503.087H449.396V497.618C449.396 497.273 449.396 496.985 449.396 496.639C449.396 496.294 449.281 495.948 449.165 495.661C449.05 495.373 448.877 495.143 448.647 494.97C448.416 494.797 448.07 494.682 447.609 494.682C447.148 494.682 446.802 494.74 446.513 494.912C446.225 495.085 446.052 495.315 445.879 495.546C445.706 495.833 445.649 496.121 445.591 496.467C445.533 496.812 445.533 497.157 445.533 497.503V503.087H442.074V491.919V491.976Z" fill="#FFF053"/>
<path d="M154.908 423.817H191.69" stroke="#FFF053" stroke-width="2.46" stroke-miterlimit="10"/>
<path d="M191.881 428.735V418.2L199.837 423.496L191.881 428.735Z" fill="#FFF053" stroke="#FFF053" stroke-width="1.23" stroke-miterlimit="10"/>
<path d="M363.089 372.984C368.661 372.984 373.178 368.473 373.178 362.909C373.178 357.345 368.661 352.835 363.089 352.835C357.517 352.835 353 357.345 353 362.909C353 368.473 357.517 372.984 363.089 372.984Z" fill="#FFF053"/>
<path d="M351.39 465.094H362.287V419.269H365.054L365.63 465.094H376.815L375.085 387.377L381.773 412.476L388.691 410.519L379.755 372.87H367.994L367.764 368.897H358.424L358.309 372.985H347.701L337.035 410.462L344.069 412.189L352.947 387.492" fill="#FFF053"/>
<path d="M414.802 372.984C420.374 372.984 424.891 368.473 424.891 362.909C424.891 357.345 420.374 352.835 414.802 352.835C409.23 352.835 404.713 357.345 404.713 362.909C404.713 368.473 409.23 372.984 414.802 372.984Z" fill="#FFF053"/>
<path d="M403.045 465.094H413.941V419.269H416.766L417.285 465.094H428.469L426.74 387.377L433.427 412.476L440.345 410.519L431.467 372.87H419.648L419.418 368.897H410.078L409.963 372.985H399.355L388.689 410.462L395.723 412.189L404.601 387.492" fill="#FFF053"/>
<path d="M387.421 251.745C392.993 251.745 397.51 247.234 397.51 241.67C397.51 236.106 392.993 231.596 387.421 231.596C381.849 231.596 377.332 236.106 377.332 241.67C377.332 247.234 381.849 251.745 387.421 251.745Z" fill="#FFF053"/>
<path d="M375.658 343.854H386.612V297.973H389.379L389.898 343.854H401.082L399.411 266.137L406.098 291.237L413.016 289.28L404.08 251.573H392.319L392.089 247.601H382.749L382.576 251.745H371.968L361.303 289.165L368.394 290.949L377.215 266.253" fill="#FFF053"/>
<path d="M466.462 372.984C472.034 372.984 476.551 368.473 476.551 362.909C476.551 357.345 472.034 352.835 466.462 352.835C460.89 352.835 456.373 357.345 456.373 362.909C456.373 368.473 460.89 372.984 466.462 372.984Z" fill="#FFF053"/>
<path d="M454.701 465.094H465.597V419.269H468.422L468.941 465.094H480.125L478.396 387.377L485.083 412.476L492.002 410.519L483.123 372.87H471.362L471.074 368.897H461.734L461.619 372.985H451.011L440.346 410.462L447.379 412.189L456.258 387.492" fill="#FFF053"/>
<path d="M413.245 139.545C418.817 139.545 423.334 135.035 423.334 129.471C423.334 123.907 418.817 119.396 413.245 119.396C407.673 119.396 403.156 123.907 403.156 129.471C403.156 135.035 407.673 139.545 413.245 139.545Z" fill="#FFF053"/>
<path d="M401.488 231.655H412.442V185.773H415.209L415.786 231.655H426.97L425.241 153.881L431.928 178.98L438.847 177.081L429.911 139.374H418.15L417.919 135.401H408.579L408.464 139.489H397.798L387.133 176.965L394.224 178.693L403.102 153.996" fill="#FFF053"/>
<path d="M439.076 251.745C444.648 251.745 449.165 247.234 449.165 241.67C449.165 236.106 444.648 231.596 439.076 231.596C433.504 231.596 428.987 236.106 428.987 241.67C428.987 247.234 433.504 251.745 439.076 251.745Z" fill="#FFF053"/>
<path d="M427.371 343.854H438.267V297.973H441.034L441.611 343.854H452.795L451.066 266.137L457.753 291.237L464.672 289.28L455.736 251.573H443.975L443.744 247.601H434.404L434.289 251.745H423.681L413.016 289.165L420.049 290.949L428.928 266.253" fill="#FFF053"/>
</g>
<defs>
<clipPath id="clip0_668_12618">
<rect width="492" height="514.14" fill="white"/>
</clipPath>
</defs>
</svg>
