<svg width="92" height="83" viewBox="0 0 92 83" fill="none" xmlns="http://www.w3.org/2000/svg">
<path d="M71.42 0.0395716C71.3872 0.072318 71.0925 0.154184 70.7814 0.203304C70.4703 0.252424 69.6516 0.399783 68.9803 0.547142C68.309 0.694501 67.5722 0.84186 67.343 0.89098C66.9337 0.956473 65.3127 1.31668 63.9046 1.62778C63.4953 1.72602 62.9714 1.82425 62.7258 1.857C62.4802 1.88975 61.9726 2.00436 61.5796 2.11897C60.6955 2.3482 60.4499 2.39732 60.0897 2.41369C59.8441 2.43006 59.8277 2.47918 59.9914 2.79028C60.1061 3.00313 60.1715 3.18323 60.1552 3.21598C60.1224 3.24873 60.3025 4.41123 60.3844 4.72232C60.4499 4.95154 60.6627 5.8357 60.7282 6.17954C60.8101 6.53975 60.8592 6.55612 61.7434 6.45788C62.2509 6.39239 62.9059 6.31052 63.1678 6.2614C64.9853 5.98306 68.4891 5.44274 68.4891 5.45911C68.4891 5.47549 68.8166 7.11281 69.2096 9.09397C69.6189 11.0751 69.9791 12.9581 70.0282 13.2528C70.0774 13.5639 70.2247 14.2843 70.3557 14.8737C70.4867 15.4632 70.634 16.1508 70.6668 16.4292C70.7159 16.6912 70.8305 17.2806 70.9288 17.739C71.027 18.1811 71.1416 18.7378 71.1744 18.967C71.3217 19.6875 72.2386 23.9609 73.0082 27.3993C73.0409 27.5794 73.1228 27.9396 73.1719 28.2015C73.2046 28.4635 73.2865 28.7255 73.3193 28.791C73.352 28.8565 73.4339 29.1512 73.483 29.4623C73.5321 29.7734 73.8105 31.0505 74.0888 32.3276L74.5964 34.6362L75.5133 34.4234C76.0208 34.3088 76.6103 34.1778 76.8395 34.1287C78.5259 33.8012 78.837 33.7357 78.9189 33.6375C78.9844 33.5883 78.8862 32.9334 78.7388 32.1802C78.5751 31.4434 78.4113 30.6575 78.3786 30.4283C78.3458 30.1991 78.264 29.8389 78.2149 29.6096C78.1657 29.3804 78.0511 28.8237 77.9693 28.3817C77.8219 27.4975 77.74 27.0063 77.4944 25.7619C77.3307 24.8942 77.2652 24.6158 77.0032 23.3223C76.8886 22.7656 76.8886 22.4545 77.0032 22.3399C77.1015 22.2417 77.6909 22.1762 78.3295 22.1762C79.4756 22.1598 79.5083 22.1762 80.0159 22.7656C80.589 23.4369 80.7363 23.8135 82.6193 29.4459C82.9795 30.5102 83.1105 30.7558 83.88 31.5744C84.4858 32.2294 85.3372 32.4422 86.336 32.1802C86.467 32.1475 87.0237 32.0329 87.564 31.9183C88.1043 31.7873 88.6282 31.6727 88.7101 31.6563C88.8083 31.6399 89.1849 31.5581 89.5779 31.4926L90.2819 31.3616L90.1673 30.6903C90.1182 30.3301 90.0363 29.8716 89.9872 29.6915C89.889 29.2494 89.7907 28.6927 89.7089 28.2507C89.5288 27.2355 89.3978 26.9736 89.1358 27.0554C88.7101 27.1864 87.9406 27.3338 87.2201 27.432C86.6471 27.4975 86.4833 27.4484 86.074 27.0227C85.5828 26.5315 85.3208 25.8111 84.7969 23.4697C84.1583 20.6862 82.5701 18.8688 80.5235 18.5905C80.1141 18.5413 80.0487 18.4595 80.0978 18.132C80.1141 17.9192 80.2124 17.6244 80.2779 17.4934C80.3434 17.3625 80.5726 16.6584 80.7527 15.938C80.9492 15.2176 81.162 14.5135 81.2112 14.3825C81.3421 14.0714 81.3094 14.1533 81.9643 11.7628C82.9958 8.06246 83.5525 6.16316 83.7326 5.81933C83.9127 5.50823 83.88 5.49186 83.2906 5.5901C82.9303 5.63922 82.4555 5.72109 82.2099 5.77021C81.948 5.8357 81.5877 5.90119 81.3913 5.93394C79.3774 6.31052 79.2627 6.37602 79.0499 7.1783C79.0335 7.22742 78.9844 7.37478 78.9189 7.50577C78.7879 7.86598 78.4113 9.02848 78.3786 9.24133C78.3622 9.33957 78.1494 10.0436 77.9201 10.8295C77.6745 11.6155 77.4944 12.2704 77.4944 12.2868C77.4944 12.3195 77.3471 12.778 77.167 13.3183C76.9705 13.8586 76.7904 14.4153 76.7576 14.5463C76.4138 15.9052 75.5951 18.263 75.5133 18.0993C75.4641 18.001 75.3168 17.428 75.2022 16.8385C75.1039 16.2491 74.973 15.6596 74.9566 15.5287C74.9075 15.3158 73.9578 10.7804 73.8105 10.1091C73.7777 9.96176 73.7122 9.5688 73.6631 9.22496C73.5976 8.8975 73.5321 8.57003 73.4994 8.50454C73.4666 8.45542 73.3847 8.14433 73.3356 7.83323C73.2865 7.52214 73.0573 6.29415 72.8281 5.13165C72.5825 3.95278 72.3532 2.82302 72.3205 2.61017C72.2714 2.39732 72.1404 1.79151 72.0094 1.25119C71.8948 0.727248 71.7965 0.23605 71.7965 0.186931C71.7802 0.0395716 71.5346 -0.0586679 71.42 0.0395716Z" fill="#FFFEF0"/>
<path d="M52.4108 6.76893C52.378 6.80168 52.0014 6.86717 51.543 6.91629C49.4308 7.16189 46.5164 8.16066 45.1247 9.12668C43.8967 9.97809 43.5365 10.6985 43.6675 12.0739C43.8148 13.5966 43.8639 13.9077 44.3388 15.9379C44.568 16.9203 44.7972 17.87 44.83 18.0337C44.8627 18.1975 44.9282 18.4594 44.9773 18.6068C45.0264 18.7541 45.1083 19.098 45.1574 19.3763C45.9761 24.1246 47.1386 25.8765 49.7092 26.2858C50.5115 26.4168 52.6236 26.4168 55.0632 26.2858C57.3227 26.1712 57.7157 26.3022 58.1414 27.301C58.3379 27.7267 58.518 28.267 58.5671 28.5126C58.6162 28.7582 58.7308 29.3804 58.8291 29.9043C58.9109 30.4446 59.0092 31.2633 59.0092 31.7381C59.0419 32.5404 58.9928 32.655 58.518 33.0644C57.9122 33.5556 57.1426 33.8175 55.227 34.1286C53.9662 34.3415 52.9347 34.0631 52.4599 33.4082C52.2143 33.0316 52.0997 32.7533 51.8705 31.7381C51.8213 31.5253 51.5921 30.2645 51.5921 30.1827C51.5921 30.1499 51.4939 29.7733 51.3629 29.3476C51.2483 28.9383 51.1828 28.529 51.2319 28.4471C51.3465 28.2506 51.281 28.2506 49.5127 28.6272C46.7293 29.2166 46.7129 29.2166 46.8766 29.7406C46.9585 29.9862 47.0567 30.4774 47.1058 30.8376C47.4006 33.2445 48.5958 35.8969 49.9875 37.305C50.7734 38.0909 51.1337 38.3202 51.9851 38.5821C53.1312 38.926 55.5217 38.9423 56.3731 38.6149C56.4222 38.5985 56.5041 38.5821 56.5532 38.5821C56.9134 38.6313 59.2384 37.8453 60.1389 37.3705C62.5949 36.077 63.5773 34.3415 63.4955 31.3943C63.4136 28.1688 62.0546 23.9281 60.6956 22.651C60.1717 22.1598 59.5822 21.8814 58.5016 21.6358C58.1578 21.554 55.4562 21.5867 54.572 21.6686C52.9347 21.8323 51.1991 21.7341 50.3641 21.4066C50.1676 21.3411 49.922 21.1283 49.8238 20.9318C49.6437 20.5879 49.0379 18.0828 48.8905 17.0022C48.8414 16.6911 48.7104 15.9871 48.5958 15.4467C48.3011 13.9732 48.3666 12.7288 48.7595 12.3195C49.5946 11.4844 50.8881 11.0587 52.6727 11.0587C53.5569 11.0423 53.7697 11.2388 54.4738 12.5814C54.8013 13.2036 55.3252 15.152 55.6199 16.8385C55.6527 17.0677 55.7837 17.6244 55.8819 18.0992L56.062 18.9342L56.5859 18.7869C56.8807 18.7214 57.3555 18.6068 57.6502 18.5577C58.6326 18.3939 60.5319 17.9682 60.5974 17.9191C60.6301 17.8864 60.4337 16.7894 60.1553 15.4959C59.877 14.2188 59.6314 12.9416 59.5822 12.696C59.1565 10.2237 57.5683 7.71858 56.0129 7.0964C55.4562 6.88354 52.5745 6.6052 52.4108 6.76893Z" fill="#FFFEF0"/>
<path d="M65.673 8.42261C65.6239 8.45536 64.5432 8.58634 63.086 8.7337C61.3504 8.91381 61.3504 8.91381 61.6124 10.0436C61.6943 10.4038 61.8089 10.9605 61.858 11.2716C61.9071 11.5826 62.0218 12.0902 62.1036 12.4013C62.1855 12.7124 62.2182 13.0235 62.1691 13.1054C61.9726 13.4165 62.7094 13.4165 64.2813 13.089C65.1982 12.9089 66.0987 12.7288 66.2788 12.696C66.8191 12.6305 67.0156 12.4177 66.9501 12.0411C66.8846 11.73 66.4425 9.73247 66.2788 8.9793C66.246 8.84832 66.2133 8.65184 66.2133 8.5536C66.1969 8.40624 65.7876 8.308 65.673 8.42261Z" fill="#FFFEF0"/>
<path d="M26.4099 10.1419C23.4954 10.7313 22.9551 10.8296 21.6289 11.0588C21.285 11.1079 21.0558 11.2061 21.0886 11.288C21.1704 11.4026 21.3669 12.3359 21.5961 13.5639C21.6289 13.7931 21.7271 14.1861 21.7762 14.4644C21.8417 14.7264 21.9072 15.0211 21.9236 15.1193C21.94 15.2012 21.9727 15.3322 21.9891 15.3977C22.071 15.6433 22.1201 15.8561 22.1364 16.0854C22.1528 16.2655 22.3002 16.2655 23.1025 16.0854C24.1995 15.8398 24.8053 15.7252 25.5912 15.5942L26.1643 15.5123L26.8847 19.0817C27.2613 21.0465 27.6215 22.7984 27.6542 22.9785C27.7033 23.1586 27.8016 23.6334 27.8835 24.0428C27.9653 24.4521 28.2109 25.631 28.4401 26.6625C28.6694 27.694 28.8822 28.7583 28.9313 29.0366C28.9805 29.2986 29.0623 29.6752 29.0951 29.8553C29.5863 32.2621 29.7664 33.0317 30.1102 34.407C31.2563 38.9424 32.7299 41.1364 35.2187 41.9878C36.0046 42.2662 38.1331 42.2171 39.3447 41.906C41.8662 41.2347 43.3398 39.9412 44.3058 37.5179C44.9116 35.9952 45.059 34.4561 44.8952 31.4107C44.8789 31.0669 44.4368 28.4308 44.3386 28.1361C44.3058 28.0051 44.2403 27.6776 44.1912 27.4156C44.1421 27.1537 44.0275 26.5642 43.9456 26.1058C43.8474 25.6473 43.7491 25.0906 43.7 24.8614C43.569 24.0591 42.1118 16.9859 41.7843 15.5778C41.6206 14.7919 41.3095 13.3838 41.113 12.4505L40.7692 10.7641L40.2616 10.8623C39.9833 10.9278 39.6067 10.9933 39.4266 11.0424C39.2465 11.0752 38.6898 11.1898 38.1986 11.2716C37.7074 11.3699 37.2326 11.4681 37.1343 11.5009C37.0525 11.5172 36.6923 11.5991 36.3484 11.681C35.89 11.7628 35.759 11.8611 35.8081 12.0739C35.9063 12.385 36.3975 14.4644 36.4958 14.9884C36.5285 15.1848 36.7414 16.1181 36.9706 17.035C37.1835 17.9683 37.3963 18.9016 37.4454 19.1308C37.4782 19.36 37.7074 20.3097 37.9366 21.2593C38.1495 22.209 38.3787 23.1586 38.4278 23.3878C38.4769 23.6171 38.7062 24.6486 38.9354 25.6801C39.181 26.7116 39.3938 27.7595 39.4266 28.0051C39.4593 28.2507 39.5248 28.5127 39.5739 28.5945C39.6067 28.66 39.6886 29.0857 39.7377 29.5278C39.8032 29.9862 39.8687 30.5266 39.9178 30.7558C40.1306 31.8855 40.2289 34.2269 40.0815 34.9801C39.8687 36.0935 38.788 36.994 37.6255 37.0267C36.725 37.0595 35.7917 36.1262 35.497 34.9146C35.3988 34.538 34.9567 32.606 34.8585 32.1475C34.4491 30.1991 34.2199 29.1512 34.1708 28.8729C34.138 28.6928 33.9907 27.9723 33.8433 27.2683C33.7123 26.5806 33.5486 25.8111 33.5158 25.5655C33.4667 25.3199 33.3194 24.5995 33.1884 23.9609C33.041 23.3387 32.8773 22.4382 32.7954 21.9961C32.7136 21.5377 32.468 20.2933 32.2387 19.2127C32.0095 18.132 31.7967 17.0678 31.7475 16.8385C31.6984 16.5274 30.8798 12.4669 30.585 11.1079C30.5687 10.9769 30.4868 10.5512 30.4213 10.1583C30.2903 9.30684 30.454 9.30684 26.4099 10.1419Z" fill="#FFFEF0"/>
<path d="M66.0169 14.7754C65.9677 14.8246 64.2977 15.021 63.1679 15.1029C62.8241 15.1193 62.7586 15.5941 62.9714 16.5929C63.0369 16.8548 63.1188 17.2805 63.1679 17.5425C63.217 17.7881 63.3644 18.5249 63.5118 19.1798C63.6427 19.8184 63.8065 20.5388 63.8392 20.768C64.0357 21.8159 64.4287 23.6825 64.5596 24.2064C64.6415 24.5175 64.7398 25.0578 64.7889 25.418C64.8544 25.7619 64.9199 26.0893 64.9526 26.1548C65.0017 26.204 65.0672 26.5805 65.1327 26.9899C65.1982 27.3992 65.2637 27.7594 65.2964 27.8085C65.3292 27.8577 65.3947 28.1524 65.4438 28.4635C65.4929 28.7746 65.5748 29.2166 65.6239 29.4459C65.673 29.6751 65.7876 30.2154 65.8695 30.6739C65.9514 31.1159 66.066 31.7054 66.1151 31.9837C66.1642 32.2457 66.2297 32.6223 66.2625 32.8024C66.2952 32.9825 66.4098 33.6047 66.5081 34.1941C66.6227 34.7835 66.7209 35.4057 66.7537 35.5858C66.7864 35.8314 66.9174 35.9133 67.2776 35.8969C67.6706 35.8642 68.8658 35.6513 69.7172 35.4385C69.8155 35.4221 70.1429 35.3402 70.454 35.2747C71.3709 35.0619 71.42 34.9636 71.1744 33.8994C71.0598 33.3918 70.9288 32.786 70.8797 32.5568C70.847 32.3275 70.5359 30.8867 70.2084 29.364C69.8809 27.8249 69.5535 26.2531 69.4716 25.8437C69.3243 25.1069 69.2096 24.583 69.0787 23.9608C69.0295 23.7807 68.8494 22.9293 68.6693 22.0779C68.4892 21.2265 68.2273 20.0312 68.0963 19.4418C67.9653 18.8524 67.8179 18.1483 67.7852 17.8863C67.7361 17.6244 67.5559 16.8057 67.4086 16.0525C67.1139 14.7263 67.1139 14.7099 66.6063 14.7099C66.3116 14.7099 66.0496 14.7427 66.0169 14.7754Z" fill="#FFFEF0"/>
<path d="M5.91067 16.1017C5.87792 16.1345 5.59958 16.2163 5.28849 16.2654C4.97739 16.3146 4.60081 16.3964 4.46982 16.4292C4.33884 16.4619 3.96225 16.5438 3.65116 16.5929C3.34007 16.642 2.75063 16.7566 2.3413 16.8385C1.93197 16.9204 1.4244 17.035 1.19518 17.0677C0.032676 17.2642 -0.0983099 17.3461 0.0490492 17.7554C0.130915 17.9683 0.180035 18.1484 0.130915 18.1484C0.098169 18.1484 0.147289 18.394 0.229155 18.6723C0.311021 18.967 0.425634 19.4255 0.45838 19.7038C0.5075 19.9658 0.622113 20.588 0.720352 21.0464C0.818592 21.5213 0.884084 21.9633 0.867711 22.0125C0.802218 22.2581 1.27704 22.3563 1.80099 22.2089C2.53778 22.0125 3.20908 22.0943 3.2582 22.4054C3.27458 22.5364 3.48743 23.6007 3.73303 24.7795C3.97863 25.942 4.20785 27.0882 4.2406 27.3174C4.28972 27.5466 4.38796 27.9887 4.46982 28.2998C4.55169 28.6109 4.64993 29.1676 4.71542 29.5278C4.76454 29.888 4.9119 30.6412 5.04289 31.1978C5.17387 31.7709 5.32123 32.4258 5.37035 32.6878C5.41947 32.9334 5.48496 33.31 5.53408 33.5392C5.5832 33.7684 5.66507 34.1614 5.69782 34.4397C5.74694 34.7017 5.8288 35.0456 5.86155 35.1765C5.8943 35.3075 5.95979 35.6022 6.00891 35.8315C6.04165 36.0607 6.35275 37.5343 6.68021 39.1061C7.00768 40.6779 7.28602 42.1188 7.31877 42.2989C7.35151 42.479 7.41701 42.7901 7.4825 42.9866C7.54799 43.1831 7.62986 43.5924 7.66261 43.8871C7.7281 44.4438 7.82634 44.9677 7.9737 45.4589C8.02282 45.6063 8.10468 46.032 8.1538 46.3922C8.2193 46.7524 8.28479 47.1618 8.31754 47.2927C8.35028 47.4237 8.38303 47.5711 8.38303 47.6202C8.48127 48.095 8.72687 48.095 10.9209 47.6366C12.1652 47.3746 13.2131 47.129 13.2623 47.0799C13.295 47.0308 13.1804 46.2776 12.9839 45.3771C12.7874 44.4929 12.6073 43.6579 12.5746 43.5269C12.5418 43.3959 12.329 42.3971 12.0834 41.3165C11.8378 40.2359 11.6086 39.2207 11.5758 39.057C11.5431 38.8933 11.4939 38.6313 11.4448 38.4839C11.3957 38.3366 11.3138 37.96 11.2647 37.6489C11.2156 37.3378 11.1337 37.0267 11.101 36.9776C11.0519 36.9121 10.9864 36.5683 10.9373 36.2244C10.8881 35.8642 10.7899 35.4713 10.7408 35.3403C10.6917 35.2093 10.6262 34.9473 10.6098 34.7672C10.5115 34.1614 10.3969 33.6211 10.266 33.2936C10.2005 33.1135 10.2005 33.0153 10.266 33.0644C10.3806 33.1626 14.3593 41.1691 15.7019 43.9853L16.3404 45.3279L17.0772 45.2461C17.8468 45.1642 19.0256 44.9022 19.1239 44.804C19.1402 44.7876 19.2221 44.0508 19.2876 43.1994C19.3531 42.348 19.435 41.4639 19.4513 41.2346C19.4841 41.0054 19.5496 40.2031 19.6151 39.4336C19.6806 38.664 19.7461 37.7799 19.7788 37.4688C19.8115 37.1577 19.877 36.3063 19.9425 35.5859C19.9917 34.8654 20.0735 33.9485 20.1063 33.5392C20.1881 32.7369 20.3519 30.9522 20.4337 29.7734C20.4665 29.364 20.4992 28.9547 20.5156 28.8728C20.532 28.7255 20.8594 30.0845 21.0723 31.1651C21.1378 31.4762 22.2512 37.0431 22.4149 37.829C22.4476 38.0419 22.5295 38.4676 22.5786 38.7787C22.6277 39.0897 22.7096 39.4991 22.7587 39.6792C22.8897 40.0885 22.9061 40.1704 23.0535 41.0545C23.1026 41.4311 23.2172 41.9223 23.299 42.1352C23.3809 42.348 23.4137 42.5445 23.3809 42.5772C23.3482 42.61 23.4137 43.0193 23.5446 43.4941C23.8066 44.5093 23.7902 44.4438 23.7902 44.7713C23.7902 44.935 23.8885 45.0005 24.085 44.935C24.2323 44.8859 24.658 44.8204 25.0182 44.7549C25.3785 44.7058 26.0661 44.5584 26.5737 44.4438C27.0649 44.3128 27.8999 44.1163 28.4402 44.0181L29.3899 43.8216L29.2753 43.314C29.2262 43.0193 29.1443 42.6755 29.1115 42.5445C29.0297 42.1679 28.5549 39.892 28.473 39.4336C28.4402 39.2044 28.2929 38.4676 28.1455 37.7963C28.0145 37.125 27.8672 36.3882 27.8181 36.1589C27.7853 35.9297 27.638 35.2257 27.4906 34.6035C27.3596 33.9649 27.2123 33.2609 27.1631 33.048C27.1304 32.8188 27.0158 32.3112 26.9175 31.9019C26.8357 31.4926 26.7047 30.9031 26.6556 30.592C26.5901 30.2809 26.5246 29.8716 26.4918 29.6915C26.4591 29.5114 26.3445 28.9875 26.2462 28.5454C26.148 28.0869 26.0334 27.5466 26.0006 27.3174C25.9515 27.0882 25.886 26.7607 25.8533 26.5806C25.7878 26.3022 25.2475 23.6334 25.0182 22.4873C24.3797 19.3436 24.1505 18.2794 24.085 18.2139C24.0358 18.1811 23.6429 18.2139 23.2172 18.3121C22.7915 18.4103 22.2348 18.5086 22.0056 18.5413C21.3179 18.6396 19.5168 18.967 18.6818 19.1471C18.1415 19.2781 17.8959 19.4091 17.8795 19.5892C17.8795 19.7529 17.8468 19.9822 17.814 20.1132C17.7976 20.2441 17.7158 20.6535 17.6667 21.0137C17.6012 21.3903 17.5357 21.8323 17.5029 21.9961C17.3392 22.9294 17.1918 23.9772 17.2082 24.0755C17.2246 24.141 17.1591 24.5831 17.0772 25.0579C16.9954 25.5327 16.8807 26.204 16.8316 26.5315C16.6679 27.7431 16.586 28.3653 16.5042 28.7746C16.4714 29.0038 16.3895 29.5605 16.3404 30.019C16.2749 30.461 16.2094 30.9522 16.1767 31.0832C16.1439 31.2142 16.0621 31.689 16.013 32.1475C15.9475 32.5896 15.8656 33.0971 15.8165 33.2609C15.751 33.5392 15.7182 33.5392 15.5381 33.179C15.3417 32.8188 14.7686 31.7545 13.5079 29.4459C13.1968 28.8565 12.7383 28.0051 12.4927 27.563C12.2471 27.1045 11.8214 26.335 11.5594 25.8438C11.2811 25.3526 10.708 24.272 10.266 23.4697C9.84025 22.651 9.18532 21.4394 8.82511 20.7681C8.44852 20.0804 7.74447 18.7869 7.25327 17.8537C6.45099 16.3637 6.10715 15.9216 5.91067 16.1017Z" fill="#FFFEF0"/>
<path d="M89.6107 34.1451C89.1195 34.2597 88.5629 34.3907 88.3827 34.4234C88.2026 34.4562 87.4986 34.6035 86.8109 34.7509C86.1396 34.8819 85.2555 35.0456 84.8461 35.0783C83.9947 35.1766 83.4871 35.2748 82.1609 35.5859C81.6206 35.7169 80.9165 35.8643 80.6055 35.9134C80.2944 35.9789 79.0827 36.2408 77.9039 36.5192C76.7414 36.7812 75.6444 37.0431 75.4806 37.0759C75.3169 37.1086 75.0549 37.1577 74.9076 37.2069C74.7602 37.256 74.4327 37.3215 74.1708 37.3706C73.9252 37.4197 73.5977 37.4852 73.434 37.5343C73.2866 37.5834 72.9755 37.6489 72.7463 37.6981C72.5171 37.7472 72.1896 37.8127 72.0095 37.8618C71.6165 37.9437 68.5548 38.5822 68.0144 38.6968C67.818 38.7296 67.5232 38.7951 67.3759 38.8442C67.2285 38.8933 66.9174 38.9588 66.6882 39.0079C66.2461 39.0898 64.8871 39.3681 64.2322 39.5155C64.003 39.5646 63.61 39.6465 63.3317 39.6956C63.0697 39.7447 62.4312 39.8757 61.94 40.0067C61.4488 40.1377 60.7775 40.2687 60.4664 40.3014C59.7132 40.3669 59.4349 40.547 59.5658 40.8908C59.6313 41.0382 59.6968 41.3329 59.7459 41.5621C59.7787 41.7914 59.8442 42.1516 59.8933 42.3808C59.9915 42.8556 60.4664 45.2297 60.4664 45.2952C60.4664 45.3607 61.0722 45.2297 62.2674 44.9187C63.3317 44.6403 63.6264 44.5748 64.3959 44.4275C64.9035 44.3292 66.3116 44.0509 66.7864 43.9526C66.9829 43.9199 67.425 43.838 67.7688 43.7889C68.129 43.7234 68.522 43.6579 68.653 43.6088C68.8822 43.5433 69.2261 43.4778 70.2576 43.2813C70.5032 43.2322 71.5183 43.0357 72.5007 42.8393C73.4995 42.6591 74.4655 42.479 74.662 42.4627C74.8584 42.4299 75.2187 42.3644 75.4806 42.3153C77.4618 41.906 77.9694 41.8896 78.1331 42.1843C78.2641 42.4299 78.7062 43.969 78.8863 44.8368C78.919 44.9678 79.0991 45.7373 79.2956 46.556C79.7213 48.2752 79.754 48.4389 79.9505 49.4213C80.0324 49.8306 80.1798 50.5183 80.278 50.9768C80.4417 51.7627 80.4908 52.0246 80.7037 53.2199C80.7528 53.5146 80.8838 54.235 81.0148 54.8245C81.244 55.9706 81.8662 59.0651 81.9972 59.7364C82.0463 59.9657 82.1118 60.3259 82.1609 60.5551C82.1937 60.7843 82.2755 61.1773 82.3246 61.4556C82.3901 61.8813 82.5375 62.6672 82.7831 63.9116C82.8322 64.0917 82.9141 64.5993 82.9796 65.0577C83.0614 65.4998 83.1269 65.9091 83.1433 65.9583C83.1597 66.0074 83.2579 66.5968 83.3725 67.2681C83.4871 67.9394 83.6345 68.7581 83.7164 69.0692C83.7982 69.3803 83.8965 69.937 83.962 70.2808C84.0111 70.641 84.093 70.9685 84.1257 71.0012C84.1912 71.0667 85.4028 70.8702 86.5489 70.6083C87.2857 70.4445 87.4822 70.3954 88.0717 70.2972C88.743 70.1826 88.7593 70.1826 89.4961 69.9697C90.0037 69.8387 89.9873 69.8551 89.7745 69.0692C89.6926 68.7581 89.578 68.2341 89.5289 67.9231C89.4798 67.612 89.3651 67.1208 89.2833 66.8588C89.2014 66.5804 89.1032 66.1384 89.054 65.8764C89.0213 65.5981 88.8903 64.9759 88.7921 64.4847C88.6938 63.9935 88.5792 63.404 88.5301 63.1748C88.481 62.9456 88.4155 62.6345 88.3664 62.4871C88.3173 62.3234 88.2518 61.9959 88.2026 61.7503C88.1699 61.4884 87.9407 60.4405 87.7114 59.409C87.4822 58.3775 87.253 57.2968 87.2039 57.0348C87.1548 56.7565 86.9419 55.725 86.7127 54.7426C86.4998 53.7438 86.2706 52.7123 86.2379 52.4503C86.1887 52.172 86.0741 51.6644 85.9759 51.3042C85.894 50.944 85.7794 50.5019 85.7467 50.3218C85.7139 50.1417 85.6484 49.8143 85.5993 49.585C85.5502 49.3558 85.4847 49.0283 85.4519 48.8482C85.4192 48.6681 85.2227 47.784 85.0262 46.8834C84.8298 45.9829 84.6496 45.066 84.6005 44.8368C84.5514 44.6076 84.4368 44.1327 84.3386 43.7725C84.2567 43.4123 84.1421 42.9375 84.093 42.7083C84.0602 42.479 83.9292 41.8732 83.8146 41.3657L83.6018 40.416L84.2731 40.2359C84.6333 40.1377 85.1245 40.0231 85.3537 39.9739C85.5829 39.9412 86.0905 39.8266 86.4998 39.7447C86.9092 39.6465 87.3512 39.5482 87.4822 39.5155C87.6132 39.4827 88.5629 39.2699 89.5944 39.0407C90.6095 38.8114 91.4773 38.615 91.5264 38.615C91.5592 38.615 91.5428 38.4512 91.4937 38.2384C91.4445 38.0419 91.379 37.6981 91.3463 37.4688C91.2972 37.2396 91.2317 36.8794 91.1826 36.6502C91.1335 36.4209 91.0025 35.766 90.9042 35.1766C90.7896 34.5871 90.6586 34.0632 90.6095 34.0141C90.5604 33.965 90.1019 34.0141 89.6107 34.1451Z" fill="#FFFEF0"/>
<path d="M55.5543 41.2346C55.2432 41.3165 54.7684 41.4147 54.4901 41.4638C54.2281 41.5293 53.8188 41.6112 53.5895 41.6603C53.3603 41.7094 53.0001 41.7913 52.7709 41.8241C51.9686 41.9714 51.9686 41.955 52.2306 43.1503C52.3615 43.7561 52.4925 44.3783 52.5253 44.5256C52.558 44.673 52.6235 45.0496 52.6726 45.3443C52.7218 45.6554 52.8036 46.0811 52.8527 46.3103C52.9019 46.5395 52.9837 46.8998 53.0328 47.129C53.082 47.3582 53.2621 48.1932 53.4258 49.0119C53.6059 49.8142 53.7696 50.6656 53.8188 50.8948C53.9989 51.8445 54.9321 56.1179 55.145 56.9529C55.276 57.4441 55.407 58.0336 55.4561 58.2628C55.5052 58.492 55.6198 58.9668 55.7017 59.327C55.7835 59.6873 55.8982 60.1621 55.9473 60.3913C56.0619 60.9807 56.1438 61.3246 56.4221 62.438C56.5531 62.9783 56.7823 63.977 56.9297 64.6483C57.077 65.3197 57.3718 66.6786 57.5846 67.6774C57.8138 68.6598 58.0267 69.6586 58.0758 69.8878C59.3202 76.126 59.3365 76.2897 58.3869 77.354C57.7156 78.1399 56.0783 78.451 54.8994 78.0417C53.7533 77.6487 53.3276 76.9283 52.9346 74.7179C52.4762 72.0818 52.5744 72.2292 51.3791 72.5075C51.0189 72.5894 50.5114 72.6876 50.233 72.7367C49.971 72.7859 49.4962 72.9005 49.2179 72.9823C48.9232 73.0642 48.6776 73.0969 48.6776 73.0314C48.6776 72.9823 48.5957 73.0151 48.5138 73.0969C48.3828 73.2279 48.432 73.7355 48.6612 74.7998C49.005 76.3552 49.8073 79.0732 49.971 79.2205C50.0365 79.2697 50.2003 79.5644 50.3476 79.8918C50.7078 80.6941 51.5265 81.611 52.1487 81.9221C53.2457 82.4624 55.7017 82.6262 57.3226 82.2496C57.5191 82.2005 57.8466 82.135 58.0267 82.0859C60.3681 81.5783 62.4638 79.8918 63.0696 78.058C63.3807 77.0756 63.4462 76.7318 63.479 75.3892C63.5281 74.1776 63.479 73.7682 63.0696 71.7543C62.9878 71.2959 62.8732 70.7064 62.824 70.4772C62.7913 70.2316 62.5784 69.2001 62.3492 68.2013C62.1364 67.1862 61.7598 65.4015 61.5306 64.239C61.285 63.0601 60.9411 61.4392 60.7774 60.6369C60.5973 59.8182 60.4335 59.016 60.4008 58.8358C60.3844 58.6557 60.2862 58.2464 60.2207 57.9353C60.1388 57.6242 60.0733 57.2149 60.0406 57.0348C60.0242 56.8547 59.9915 56.7073 59.9751 56.7073C59.9587 56.7073 59.926 56.56 59.8932 56.3799C59.8769 56.1998 59.7295 55.463 59.5658 54.7425C59.4184 54.0221 59.2547 53.2526 59.2219 53.0233C59.1728 52.7941 59.1073 52.4994 59.0746 52.3684C59.0254 52.2374 58.96 51.8281 58.8945 51.4679C58.8453 51.1077 58.7635 50.7638 58.7307 50.7147C58.698 50.6492 58.6325 50.3218 58.567 49.9943C58.436 49.1593 58.3705 48.7827 58.2723 48.4716C58.2232 48.3242 58.1577 48.0131 58.1085 47.7839C58.0758 47.5547 57.9121 46.7851 57.7647 46.0647C57.6174 45.3443 57.4536 44.5748 57.4209 44.3455C57.3881 44.1163 57.3063 43.7397 57.2571 43.4941C57.208 43.2485 57.1589 43.0193 57.1589 43.0029C57.1589 42.9702 57.077 42.5445 56.9624 42.0533C56.7332 41.0709 56.6022 40.989 55.5543 41.2346Z" fill="#FFFEF0"/>
<path d="M48.3502 42.8229C47.859 42.9375 47.3023 43.0685 47.1222 43.1012C46.9421 43.1339 45.796 43.3959 44.5844 43.6743C43.3728 43.9362 42.1939 44.1982 41.9647 44.2473C41.7354 44.2801 41.1951 44.4111 40.7367 44.5093C40.2946 44.6075 39.7706 44.7385 39.5905 44.7713C39.4104 44.8204 39.1157 44.8859 38.9356 44.9186C38.7555 44.9678 38.428 45.0332 38.1988 45.0987C37.7076 45.2133 36.4796 45.4753 35.9066 45.5736C35.6773 45.6227 35.3499 45.6882 35.1698 45.7209C34.9897 45.7537 34.5148 45.8355 34.1055 45.8847C33.6962 45.9501 33.2213 46.0156 33.0412 46.0484C32.8611 46.0975 32.6155 46.1303 32.5009 46.1303C32.2553 46.1466 32.3044 46.8834 32.6155 48.0787C32.6974 48.4061 32.812 48.9464 32.8611 49.2739C33.0249 50.3709 33.0904 50.4364 33.8435 50.3054C34.9078 50.1253 35.006 50.1417 35.0388 50.4855C35.0552 50.6656 35.1206 50.9931 35.1698 51.2223C35.2353 51.4516 35.3171 51.8118 35.3499 52.041C35.4972 52.8105 35.5463 53.1053 35.8247 54.4151C35.9721 55.1355 36.1194 55.9214 36.1522 56.1834C36.1849 56.429 36.2504 56.691 36.2995 56.7565C36.3486 56.8383 36.4141 57.2149 36.4796 57.6243C36.5287 58.0172 36.627 58.623 36.7088 58.9505C36.7907 59.2943 36.8235 59.5727 36.7907 59.5727C36.7416 59.5727 36.7907 59.7037 36.8726 59.8674C36.9544 60.0311 37.0691 60.4896 37.1346 60.8825C37.2 61.2919 37.5439 62.9783 37.9041 64.6484C38.2643 66.3185 38.5918 67.8248 38.6081 68.0049C38.6409 68.185 38.7064 68.4797 38.7555 68.6598C38.7882 68.8399 39.0338 69.8878 39.2794 71.0012C39.7215 72.966 39.7379 72.9987 40.1472 72.9332C40.3765 72.9005 40.5729 72.8514 40.5729 72.835C40.5729 72.8186 40.753 72.7695 40.9659 72.7368C41.1951 72.704 41.7846 72.5567 42.2758 72.4257C42.7833 72.2947 43.3728 72.1637 43.602 72.1146C44.0768 72.0163 44.2897 71.9672 45.8124 71.607C46.8275 71.3778 47.4006 71.2468 48.9888 70.9357C49.218 70.8866 50.577 70.5919 52.0178 70.2808C53.475 69.9697 54.7849 69.6913 54.9486 69.675C55.2761 69.6422 55.2761 69.675 55.0469 68.5616C54.9486 68.0704 54.834 67.4482 54.7849 67.1862C54.7522 66.9079 54.6212 66.2857 54.5066 65.7945C54.2773 64.8285 54.2282 64.7957 53.0166 65.0413C52.7546 65.0905 52.1161 65.2051 51.6249 65.3033C51.1337 65.4016 50.5442 65.5162 50.315 65.5489C50.0858 65.5817 49.7256 65.6635 49.4963 65.7126C49.2671 65.7618 48.825 65.8436 48.514 65.8928C48.2029 65.9419 47.6789 66.0401 47.3678 66.122C47.0567 66.2038 46.5 66.3185 46.1398 66.3676C45.7796 66.4331 45.3703 66.4986 45.2393 66.5313C45.1083 66.5804 44.699 66.6459 44.3388 66.695C43.9786 66.7442 43.4874 66.826 43.2581 66.8751C42.9798 66.9243 42.8324 66.8751 42.8324 66.7442C42.8161 66.6295 42.5541 65.5325 42.2594 64.3045L41.7027 62.0778L42.6523 61.8649C43.1599 61.7503 43.6347 61.6685 43.6838 61.6685C43.7166 61.6685 43.9949 61.603 44.2897 61.5211C44.5844 61.4229 44.9773 61.3246 45.1574 61.2919C45.796 61.1445 46.1562 61.0626 47.1222 60.7843C48.2029 60.4896 48.4976 60.4241 48.7923 60.4077C48.9233 60.3913 48.8742 59.9656 48.6613 58.9505C48.4812 58.1646 48.3175 57.3459 48.2684 57.1331C48.2356 56.9202 48.121 56.6582 48.0391 56.5764C47.8754 56.4126 46.4346 56.6091 43.602 57.1986C43.3728 57.2477 42.8979 57.3295 42.5377 57.3787C42.1775 57.4278 41.8337 57.5097 41.7846 57.5424C41.7191 57.5751 41.3097 57.6406 40.8513 57.7061C39.9508 57.8044 39.9835 57.8535 39.5742 56.2162C39.5087 55.9378 39.4432 55.6431 39.4104 55.5612C39.2794 54.9718 38.9029 53.3017 38.7555 52.5322C38.7064 52.303 38.5918 51.7954 38.4935 51.3861C38.1006 49.6669 38.1006 49.6178 38.8046 49.4868C39.1485 49.4049 39.4596 49.3394 39.5087 49.3394C39.5578 49.323 39.7706 49.2575 39.9999 49.2084C40.2291 49.1429 41.6699 48.8318 43.1927 48.5044C46.5983 47.7839 46.4673 47.8167 46.4673 47.7839C46.4673 47.7676 46.5819 47.7348 46.7129 47.7021C46.8439 47.6857 47.4006 47.5711 47.9409 47.4565C49.0379 47.2436 50.0039 46.9489 50.2168 46.7852C50.2823 46.7197 50.2004 46.0156 50.0203 45.2133C49.8238 44.4274 49.6437 43.5597 49.5946 43.2977C49.48 42.61 49.3654 42.5773 48.3502 42.8229Z" fill="#FFFEF0"/>
<path d="M73.4831 44.6075C72.5007 44.8367 71.502 45.0496 71.2727 45.0987C71.0435 45.1314 70.3886 45.2952 69.8155 45.4261C69.2261 45.5735 68.6367 45.7045 68.5057 45.7372C68.3583 45.77 67.5397 45.9501 66.6882 46.1466C65.8368 46.3431 65.0018 46.5232 64.8381 46.5559C64.6743 46.5886 64.396 46.6705 64.2159 46.7196C64.0522 46.7851 63.7411 46.8506 63.5282 46.867C63.3317 46.8997 62.906 46.9652 62.5949 47.0307C62.2838 47.0962 61.809 47.1617 61.5307 47.1945C61.105 47.2436 61.0395 47.3254 61.0395 47.7184C61.0231 47.9804 61.1541 48.6517 61.3014 49.192C61.4488 49.7487 61.6125 50.4527 61.6617 50.7475C61.7435 51.2714 61.7926 51.4679 62.0219 52.5321C62.0874 52.7614 62.1529 53.1216 62.202 53.3508C62.2347 53.58 62.3166 53.9402 62.3657 54.1695C62.4148 54.3987 62.4967 54.7589 62.5294 54.9881C62.5786 55.2173 62.7587 56.1342 62.9388 57.0348C63.1352 57.9353 63.3154 58.8522 63.3481 59.0814C63.3808 59.3107 63.4627 59.7036 63.5282 59.982C63.5937 60.2439 63.6428 60.5386 63.6592 60.6369C63.6592 60.7188 63.7247 61.0626 63.8066 61.3737C63.872 61.6848 63.9375 62.0614 63.9703 62.1923C64.003 62.3233 64.0685 62.6181 64.1176 62.8473C64.1831 63.0765 64.265 63.4367 64.2977 63.6659C64.4451 64.4519 64.7071 65.729 65.0345 67.1862C65.2147 67.9885 65.3948 68.8399 65.4439 69.0691C65.493 69.2983 65.5585 69.6258 65.6076 69.8059C65.6404 69.986 65.8041 70.6901 65.9514 71.3614C66.2462 72.7531 66.5573 73.9811 66.59 73.9811C66.6227 73.9811 67.0157 73.8665 67.5069 73.7191C67.9817 73.5717 68.5384 73.4244 68.7185 73.3916C68.915 73.3589 69.8319 73.146 70.7816 72.9332C71.7312 72.704 72.6808 72.4911 72.9101 72.442C73.1393 72.4092 74.0235 72.2128 74.8749 72.0327C75.7263 71.8526 76.6104 71.6725 76.8397 71.6233C77.0689 71.5906 77.5437 71.476 77.9039 71.3941C78.2641 71.2959 78.8208 71.1649 79.1319 71.1158C79.443 71.0503 79.8196 70.9848 79.9506 70.952C80.0816 70.9193 80.278 70.8865 80.3599 70.8865C80.9002 70.8374 80.933 70.6082 80.6055 69.1346C80.4254 68.3323 80.2453 67.4973 80.1962 67.2681C80.0161 66.1056 79.9178 65.6962 79.8032 65.5816C79.7377 65.5161 79.0173 65.6144 78.215 65.7781C77.3963 65.9582 76.3976 66.1547 76.0046 66.2038C75.6117 66.2693 75.2514 66.3348 75.2023 66.3675C75.1368 66.4003 74.7275 66.4821 74.2854 66.5476C73.8433 66.5967 73.4504 66.6786 73.4013 66.695C73.3522 66.7277 73.0083 66.7932 72.6481 66.8423C72.2879 66.9078 71.8131 66.9897 71.6002 67.0225C71.371 67.0716 70.8143 67.1534 70.3558 67.2026L69.5208 67.3008L69.308 66.0073C69.1933 65.3033 69.0787 64.5828 69.046 64.4027C68.9969 64.2226 68.9477 63.8952 68.915 63.6659C68.8823 63.4367 68.8004 63.0601 68.7349 62.8309C68.6367 62.4216 68.6858 62.3888 69.4226 62.1923C69.8483 62.0941 70.3558 61.9631 70.536 61.9304C71.3546 61.7666 71.5838 61.7175 72.5826 61.4556C73.172 61.3082 73.7615 61.1608 73.8925 61.1281C74.8749 60.9316 75.6772 60.6696 75.6117 60.5714C75.5789 60.5059 75.497 60.1948 75.4479 59.8837C75.3988 59.5726 75.2351 58.7703 75.0877 58.099C74.9404 57.4277 74.8257 56.8219 74.8421 56.7401C74.8585 56.6746 74.8585 56.6254 74.8421 56.6254C74.793 56.6254 72.6972 57.002 71.7639 57.1821C71.5347 57.2313 71.0763 57.2967 70.7488 57.3459C70.405 57.395 69.8155 57.5096 69.4389 57.5915C68.784 57.7388 67.7034 57.9026 66.9502 57.9844C66.6555 58.0172 66.5081 57.7552 66.2953 56.7073C66.2462 56.5272 66.0661 55.7904 65.886 55.07C65.7058 54.3496 65.5257 53.58 65.4766 53.3508C65.1819 52.0573 65.0345 51.1895 65.0837 51.1404C65.1164 51.1077 65.4439 51.0585 65.8368 50.9931C66.2134 50.9439 66.6555 50.8457 66.8192 50.7638C66.9666 50.682 67.6543 50.5182 68.3256 50.4036C69.9793 50.1253 70.1102 50.1089 70.4213 50.0107C70.5687 49.9615 70.9617 49.8797 71.2727 49.8306C71.5838 49.7814 72.2879 49.6177 72.8282 49.4867C73.3685 49.3394 73.9252 49.2084 74.0562 49.1756C74.1872 49.1429 74.6293 49.0446 75.0386 48.93C75.4479 48.8154 75.9228 48.7008 76.0865 48.6681C76.2666 48.6353 76.4631 48.5534 76.5449 48.4716C76.6268 48.3897 76.4794 47.3909 76.2502 46.2612C75.9064 44.6402 75.7426 44.1818 75.5462 44.1982C75.3988 44.1982 74.4819 44.3946 73.4831 44.6075Z" fill="#FFFEF0"/>
<path d="M27.9654 47.2272C27.0649 47.4237 26.0661 47.6365 25.755 47.6856C24.658 47.833 24.5762 47.9149 24.7072 48.668C24.8545 49.6013 24.92 49.9288 25.0346 50.4036C25.2147 51.2059 25.444 52.2865 25.5258 52.8596C25.5749 53.1707 25.6404 53.5636 25.6896 53.711C25.7878 54.0221 25.9024 54.5624 26.017 55.1518C26.0498 55.3811 26.1316 55.7413 26.1644 55.9705C26.2135 56.1997 26.279 56.5272 26.3117 56.7073C26.3445 56.8874 26.7866 59.0978 27.3105 61.6193C27.8181 64.1407 28.2602 66.3839 28.2929 66.6131C28.3093 66.8423 28.4239 67.3499 28.5385 67.7265C28.6367 68.1194 28.7514 68.627 28.7841 68.8726C28.8168 69.1182 28.8987 69.4948 28.9315 69.724C28.9806 69.9532 29.0624 70.3135 29.1116 70.5427C29.1443 70.7719 29.2425 71.1649 29.2917 71.4432C29.3572 71.7052 29.4227 72.0818 29.4554 72.2619C29.4718 72.442 29.5045 72.5893 29.5209 72.5893C29.5373 72.5893 29.57 72.7367 29.6028 72.9168C29.6846 73.4899 29.8647 74.374 30.0121 74.9635C30.094 75.2746 30.1922 75.7494 30.2413 76.0277C30.2741 76.2897 30.5033 77.4358 30.7489 78.5656C30.9781 79.6953 31.2073 80.7923 31.2565 81.0216C31.4857 82.2496 31.5184 82.315 31.7804 82.2496C31.9278 82.2168 32.6482 82.0531 33.3686 81.8566C34.5475 81.5619 39.8524 80.3666 41.064 80.121C41.8008 79.9737 42.1119 79.9246 43.1926 79.7936C43.7329 79.7281 44.3223 79.6135 44.5024 79.548C44.6825 79.4825 44.9609 79.4497 45.1246 79.4661C45.4848 79.5316 45.4684 79.4334 45.0591 77.4686C44.879 76.5844 44.6825 75.5365 44.6334 75.1599C44.5843 74.767 44.4369 74.4068 44.3223 74.3576C44.1913 74.3085 43.7492 74.3576 43.3235 74.4559C42.8815 74.5541 42.3411 74.6687 42.0792 74.7015C41.8336 74.7506 41.5061 74.8161 41.3424 74.8652C41.195 74.9143 40.8839 74.9962 40.6547 75.0453C40.4255 75.0944 39.6232 75.2746 38.8536 75.471C38.0841 75.6511 37.2982 75.8312 37.1017 75.864C36.9216 75.8804 36.6105 75.9622 36.414 76.0277C36.1848 76.0932 36.0702 76.0605 36.0538 75.9131C36.0538 75.7985 36.0211 75.5856 35.972 75.4547C35.9392 75.3237 35.841 74.8816 35.7591 74.4723C35.6609 74.0629 35.5462 73.5554 35.4971 73.3261C35.448 73.0969 35.3661 72.6548 35.317 72.3437C35.2679 72.0326 35.186 71.7216 35.1533 71.6724C35.1205 71.6233 35.055 71.3286 35.0059 71.0175C34.9568 70.7064 34.8258 70.1334 34.744 69.724C34.6457 69.3147 34.5311 68.8235 34.4984 68.6106C34.4656 68.4142 34.1709 67.0061 33.8434 65.4997C33.5323 63.9934 33.2049 62.4379 33.123 62.0286C33.0411 61.6193 32.7464 60.2275 32.4681 58.9177C32.1897 57.6078 31.9278 56.3635 31.895 56.1342C31.8623 55.905 31.6003 54.677 31.322 53.3835C31.06 52.09 30.798 50.8457 30.7489 50.6001C30.7161 50.3545 30.6015 49.7487 30.5033 49.2575C30.3232 48.3569 30.1758 47.5874 30.1103 47.1453C30.0448 46.8015 29.7829 46.8179 27.9654 47.2272Z" fill="#FFFEF0"/>
<path d="M17.0772 49.3721C16.586 49.4867 15.9638 49.6177 15.6854 49.6668C15.4235 49.7159 14.9486 49.7978 14.6375 49.8633C14.0972 49.9615 14.0972 49.9615 14.1955 50.6328C14.2446 50.9931 14.3264 51.4515 14.3592 51.6316C14.4083 51.8117 14.5393 52.4339 14.6703 53.0233C14.8504 53.8911 14.9486 54.0876 15.2106 54.0712C15.8983 54.0221 17.8303 53.8256 18.1414 53.7765C18.3215 53.7274 18.6817 53.6946 18.9273 53.6946C19.4022 53.6783 19.4022 53.6783 19.3039 52.8105C19.2548 52.352 19.1893 51.8117 19.1402 51.6316C19.1074 51.4515 19.0256 50.8129 18.9601 50.1908C18.8291 48.9464 18.8618 48.9628 17.0772 49.3721Z" fill="#FFFEF0"/>
<path d="M19.1729 55.7413C19.1402 55.7576 18.6162 55.8231 17.9777 55.8722C16.1766 56.036 15.227 56.2488 15.3416 56.4453C15.3907 56.5108 15.4726 56.8219 15.5217 57.133C15.5708 57.4441 15.6854 57.9844 15.7836 58.3446C15.8655 58.7048 15.9637 59.1796 16.0129 59.4089C16.1111 60.0147 17.7321 67.8083 17.8139 68.0867C17.8467 68.2177 17.9285 68.5779 17.9777 68.8726C18.0268 69.1673 18.1741 69.9368 18.3215 70.5918C18.4525 71.2303 18.5998 71.9508 18.6326 72.18C18.6981 72.6384 19.1074 74.9471 19.3366 76.1587C19.4185 76.5844 19.5167 76.9773 19.5659 77.0101C19.5986 77.0428 20.0734 76.9773 20.5974 76.8464C21.1377 76.7317 21.809 76.5844 22.071 76.5353C23.5609 76.2733 24.1995 76.0441 24.0521 75.7985C24.003 75.733 23.9375 75.5037 23.8884 75.2745C23.8229 74.9143 23.3645 72.8022 23.2171 72.18C22.9715 71.0993 22.8078 70.3953 22.7423 70.0515C22.6932 69.8222 22.6277 69.4784 22.5785 69.2983C22.5458 69.1018 22.2838 67.8574 21.9891 66.5148C21.7108 65.1722 21.3833 63.6332 21.2523 63.0928C21.1377 62.5525 20.9576 61.7011 20.8593 61.2099C20.7611 60.7187 20.6301 60.1293 20.581 59.9001C20.5319 59.6708 20.4664 59.3106 20.4173 59.0814C20.3845 58.8522 20.2699 58.3446 20.188 57.9353C20.0898 57.5259 19.9916 57.0511 19.9588 56.871C19.7951 56.0032 19.6477 55.6921 19.4349 55.6921C19.3039 55.6921 19.1893 55.7085 19.1729 55.7413Z" fill="#FFFEF0"/>
</svg>
